#!OML:ASF E:\Mandelcareful walks\Project 1\Capture day 1\Session 1\Subject1.ASF
:FULLY-SPECIFIED
:DEGREES
509
root -5.60614 14.0532 -2.02072 -338.831 8.17702 1.95223
lowerback 22.9061 -6.37811 -7.51086
upperback 9.23687 -9.70302 -2.60605
thorax -1.68827 -4.85436 3.60416
lowerneck -15.6633 -8.5528 0.169783
upperneck 16.6119 -15.7174 17.9713
head 9.44772 -5.73885 3.96377
rclavicle -3.97569e-014 2.38542e-014
rhumerus 16.8197 -40.0912 -14.0837
rradius 137.378
rwrist -53.7211
rhand -18.0726 -13.8407
rfingers 7.12502
rthumb 8.20027 -43.6616
lclavicle -3.97569e-014 2.38542e-014
lhumerus -57.6232 -45.6782 91.1769
lradius 70.5952
lwrist -3.90294
lhand -33.7317 -21.1022
lfingers 7.12502
lthumb -6.92055 8.76466
rfemur -76.6109 3.92251 5.1462
rtibia 62.7748
rfoot -2.37226 27.6383
rtoes 11.8512
lfemur -39.4468 48.3691 -22.6897
ltibia 73.8025
lfoot -41.3976 23.233
ltoes -17.0722
510
root -5.60711 14.0541 -2.01839 -338.925 8.53337 2.0647
lowerback 23.0443 -6.45056 -7.28407
upperback 9.32148 -9.75125 -2.63837
thorax -1.70505 -4.87091 3.47038
lowerneck -15.8892 -8.5009 0.0642393
upperneck 16.6593 -15.6643 18.0653
head 9.52002 -5.69262 4.0138
rclavicle -1.01778e-013 2.22639e-014
rhumerus 16.8673 -40.381 -14.2841
rradius 137.227
rwrist -53.4786
rhand -18.2885 -13.9059
rfingers 7.12502
rthumb 7.99186 -43.7348
lclavicle -1.01778e-013 2.22639e-014
lhumerus -57.614 -45.6327 90.8912
lradius 71.2253
lwrist -3.79895
lhand -33.7785 -21.1375
lfingers 7.12502
lthumb -6.96571 8.72786
rfemur -76.3915 3.62402 5.15561
rtibia 62.8549
rfoot -2.55264 27.5468
rtoes 16.2075
lfemur -39.2603 48.0759 -22.5485
ltibia 73.7572
lfoot -41.3585 23.207
ltoes -17.2042
511
root -5.61363 14.0521 -2.01483 -338.973 8.97586 2.11966
lowerback 23.1362 -6.48897 -7.06551
upperback 9.37037 -9.75352 -2.60467
thorax -1.72919 -4.86596 3.39827
lowerneck -15.8268 -8.49946 0.0224474
upperneck 16.4825 -15.643 18.2066
head 9.46267 -5.68921 4.07231
rclavicle -6.04305e-014 -1.59028e-015
rhumerus 16.8439 -40.64 -14.3405
rradius 137.203
rwrist -53.2155
rhand -18.6066 -13.8442
rfingers 7.12502
rthumb 7.68485 -43.6846
lclavicle -6.04305e-014 -1.59028e-015
lhumerus -57.3799 -45.6391 90.6668
lradius 71.4636
lwrist -3.71283
lhand -33.7616 -21.4682
lfingers 7.12502
lthumb -6.94944 8.39777
rfemur -76.2224 3.30669 5.2182
rtibia 62.9503
rfoot -2.85309 27.3384
rtoes 11.5102
lfemur -39.1962 47.8585 -22.3531
ltibia 73.7661
lfoot -41.2372 23.0964
ltoes -17.4324
512
root -5.62716 14.0471 -2.01836 -338.893 9.60257 1.89592
lowerback 23.2145 -6.52527 -6.73729
upperback 9.36211 -9.72205 -2.33002
thorax -1.78705 -4.84604 3.5168
lowerneck -15.7502 -8.55105 -0.243679
upperneck 16.2268 -15.6335 18.3875
head 9.39676 -5.708 4.17735
rclavicle -5.56597e-014 5.08889e-014
rhumerus 16.7891 -40.8254 -14.2596
rradius 137.059
rwrist -53.2339
rhand -18.7038 -13.5166
rfingers 7.12502
rthumb 7.59107 -43.3603
lclavicle -5.56597e-014 5.08889e-014
lhumerus -56.9454 -45.4915 90.5726
lradius 71.4959
lwrist -3.48831
lhand -33.4879 -21.0426
lfingers 7.12502
lthumb -6.68525 8.83192
rfemur -76.2425 3.05534 5.5089
rtibia 63.0392
rfoot -3.18545 26.9832
rtoes 9.92245
lfemur -39.6171 47.5747 -22.0714
ltibia 73.8768
lfoot -41.0692 22.9764
ltoes -17.72
513
root -5.63566 14.0426 -2.02342 -338.825 10.1916 1.87097
lowerback 23.3345 -6.58152 -6.53034
upperback 9.39 -9.74117 -2.10024
thorax -1.80661 -4.85429 3.66436
lowerneck -15.8941 -8.60374 -0.375652
upperneck 16.0481 -15.646 18.3955
head 9.37327 -5.72474 4.19137
rclavicle 9.06458e-014 2.06736e-014
rhumerus 16.6507 -40.8389 -14.1612
rradius 136.816
rwrist -53.2414
rhand -18.6586 -13.1528
rfingers 7.12502
rthumb 7.63467 -42.995
lclavicle 9.06458e-014 2.06736e-014
lhumerus -56.1113 -45.0569 90.4054
lradius 71.0085
lwrist -3.28866
lhand -33.1295 -20.5546
lfingers 7.12502
lthumb -6.33928 9.33053
rfemur -76.2241 2.69837 5.60329
rtibia 63.1498
rfoot -3.41443 26.7898
rtoes 8.89829
lfemur -39.9624 47.197 -21.9987
ltibia 73.9766
lfoot -40.9564 22.9467
ltoes -17.8291
514
root -5.64038 14.0361 -2.02746 -338.731 10.6289 2.18006
lowerback 23.3705 -6.62094 -6.36253
upperback 9.42231 -9.75601 -2.18478
thorax -1.83321 -4.8523 3.49207
lowerneck -15.7719 -8.9993 -3.09333
upperneck 16.3113 -16.2446 21.0072
head 10.0276 -5.91975 5.4623
rclavicle 5.24792e-014 2.06736e-014
rhumerus 16.0265 -40.7424 -13.9667
rradius 136.637
rwrist -53.3163
rhand -18.6979 -13.1161
rfingers 7.12502
rthumb 7.5968 -42.9596
lclavicle 5.24792e-014 2.06736e-014
lhumerus -55.7425 -44.9616 90.1564
lradius 70.8325
lwrist -3.37658
lhand -33.0922 -20.0312
lfingers 7.12502
lthumb -6.30323 9.85498
rfemur -76.209 2.25187 5.36679
rtibia 63.2981
rfoot -3.65126 26.7187
rtoes 7.87362
lfemur -40.173 46.8327 -22.2703
ltibia 74.0542
lfoot -40.7871 22.9932
ltoes -17.7614
515
root -5.65453 14.0261 -2.03334 -338.584 10.8459 2.40421
lowerback 23.3603 -6.59102 -6.40128
upperback 9.42446 -9.72556 -2.25737
thorax -1.83553 -4.83477 3.42881
lowerneck -15.9875 -8.74569 -1.2099
upperneck 16.042 -15.9395 19.6073
head 9.62271 -5.79444 4.69461
rclavicle -1.59028e-015 5.56597e-014
rhumerus 15.5633 -40.6408 -13.9292
rradius 136.539
rwrist -53.6779
rhand -18.9124 -13.3254
rfingers 7.12502
rthumb 7.38968 -43.1764
lclavicle -1.59028e-015 5.56597e-014
lhumerus -56.187 -44.9584 90.1325
lradius 71.7005
lwrist -3.45031
lhand -33.3952 -18.781
lfingers 7.12502
lthumb -6.59574 11.0963
rfemur -76.3724 2.12755 5.11578
rtibia 63.4492
rfoot -3.92854 26.5127
rtoes 7.72489
lfemur -40.5028 46.7888 -22.5578
ltibia 74.1595
lfoot -40.5171 22.9679
ltoes -18.0114
516
root -5.68535 14.0113 -2.03137 -338.436 10.581 2.33979
lowerback 23.2171 -6.29044 -6.87945
upperback 9.41706 -9.42672 -2.10992
thorax -1.6918 -4.7113 3.75741
lowerneck -16.0409 -8.87204 -0.626191
upperneck 15.7133 -16.024 18.9277
head 9.40496 -5.88377 4.34334
rclavicle 3.49861e-014 -1.90833e-014
rhumerus 15.1826 -40.5182 -13.7716
rradius 136.553
rwrist -54.1521
rhand -19.3747 -13.6324
rfingers 7.12502
rthumb 6.94341 -43.4986
lclavicle 3.49861e-014 -1.90833e-014
lhumerus -56.5681 -44.7953 90.4436
lradius 72.5122
lwrist -3.33475
lhand -33.7218 -18.0977
lfingers 7.12502
lthumb -6.91103 11.7695
rfemur -76.7783 2.66691 5.00504
rtibia 63.6108
rfoot -4.15261 26.1979
rtoes 7.75612
lfemur -40.8106 47.5082 -22.5887
ltibia 74.3036
lfoot -40.2656 22.6983
ltoes -18.7462
517
root -5.69509 14.0053 -2.02648 -338.435 10.7916 2.41247
lowerback 23.2943 -6.24616 -6.86777
upperback 9.41362 -9.36911 -2.0601
thorax -1.7325 -4.68113 3.80178
lowerneck -15.9478 -8.85639 -0.0570261
upperneck 15.3808 -15.8979 18.2504
head 9.13857 -5.8853 4.04138
rclavicle -6.67916e-014 6.04305e-014
rhumerus 14.3739 -40.2256 -13.4713
rradius 136.53
rwrist -54.4278
rhand -19.9953 -13.8903
rfingers 7.12502
rthumb 6.34435 -43.7753
lclavicle -6.67916e-014 6.04305e-014
lhumerus -56.4395 -44.5043 90.581
lradius 72.423
lwrist -3.53682
lhand -33.9291 -18.3518
lfingers 7.12502
lthumb -7.11116 11.5088
rfemur -76.7161 2.65215 4.89739
rtibia 63.7088
rfoot -4.46403 26.0171
rtoes 7.81737
lfemur -40.8268 47.5976 -22.5545
ltibia 74.4203
lfoot -40.3464 22.4098
ltoes -19.2161
518
root -5.70368 14.0028 -2.02341 -338.567 11.204 2.40573
lowerback 23.5612 -6.31936 -6.57597
upperback 9.4231 -9.41779 -2.11669
thorax -1.90888 -4.6863 3.63021
lowerneck -15.6692 -8.96526 -0.287047
upperneck 15.2174 -16.0058 18.5165
head 9.08801 -5.95571 4.15932
rclavicle -3.02153e-014 -1.27222e-014
rhumerus 13.3075 -39.7019 -13.3773
rradius 136.405
rwrist -54.45
rhand -20.4222 -13.9614
rfingers 7.12502
rthumb 5.93225 -43.8583
lclavicle -3.02153e-014 -1.27222e-014
lhumerus -56.0948 -44.1178 90.4119
lradius 71.8935
lwrist -3.91872
lhand -34.027 -18.4594
lfingers 7.12502
lthumb -7.20564 11.3979
rfemur -76.4425 2.56737 4.88483
rtibia 63.7616
rfoot -4.8316 25.7493
rtoes 10.1901
lfemur -40.6904 47.5555 -22.2523
ltibia 74.4837
lfoot -40.315 22.1784
ltoes -19.7516
519
root -5.70491 14.0064 -2.02668 -338.665 11.9654 2.28759
lowerback 23.865 -6.53031 -6.02008
upperback 9.47131 -9.57308 -2.01461
thorax -2.06685 -4.74277 3.50896
lowerneck -15.6221 -8.94075 -0.244828
upperneck 14.9961 -15.922 18.4807
head 8.98668 -5.93757 4.15304
rclavicle -7.95139e-015 4.77083e-015
rhumerus 12.1654 -39.0074 -13.2924
rradius 136.306
rwrist -54.4014
rhand -20.8546 -14.182
rfingers 7.12502
rthumb 5.51469 -44.0902
lclavicle -7.95139e-015 4.77083e-015
lhumerus -55.7006 -43.6917 90.2861
lradius 71.694
lwrist -4.15642
lhand -33.8753 -18.0835
lfingers 7.12502
lthumb -7.05918 11.7788
rfemur -76.1059 2.21535 5.04842
rtibia 63.777
rfoot -5.27407 25.4297
rtoes 15.6855
lfemur -40.7586 47.0532 -21.9088
ltibia 74.5198
lfoot -40.2296 22.1354
ltoes -20.1443
520
root -5.70415 14.015 -2.02801 -338.8 12.733 2.22553
lowerback 24.2708 -6.61353 -5.60882
upperback 9.5104 -9.58926 -1.74482
thorax -2.24083 -4.73769 3.62488
lowerneck -15.7914 -8.90463 -0.59886
upperneck 14.7559 -15.7746 18.6112
head 8.96044 -5.88251 4.2671
rclavicle -1.03368e-013 3.97569e-014
rhumerus 10.4963 -38.1018 -12.6425
rradius 136.217
rwrist -54.6779
rhand -21.6915 -14.9296
rfingers 7.12502
rthumb 4.70666 -44.8573
lclavicle -1.03368e-013 3.97569e-014
lhumerus -55.1268 -43.2664 90.2737
lradius 71.68
lwrist -4.58703
lhand -33.4152 -18.316
lfingers 7.12502
lthumb -6.61501 11.5607
rfemur -75.6852 1.77884 5.26083
rtibia 63.7578
rfoot -5.71508 25.1824
rtoes 8.68754
lfemur -40.6865 46.427 -21.578
ltibia 74.5016
lfoot -40.2219 22.0009
ltoes -19.9259
